<svg xmlns="http://www.w3.org/2000/svg" enable-background="new 0 0 3000 3000" viewBox="0 0 3000 3000"><ellipse cx="1486.3" cy="2865.9" fill="#ededed" class="colorededed svgShape" rx="1402.5" ry="109.1"/><path fill="#323236" d="M110,187.6V2754c0,95.1,85,174.9,179,163.1l622.7-85.1c78.7-9.9,137.8-77.1,137.8-156.8V249.7
							c0-81.2-62-154-142.6-162l-622-62C192.3,16.5,110,94.2,110,187.6z" class="color363233 svgShape"/><path fill="#595bd4" d="M197.3,191.2v2557.3c0,94.7,83.1,168,177.1,156.2l624.6-78.5c78.7-9.9,137.8-76.8,137.8-156.2V253.1
							c0-80.9-61.4-148.7-141.9-156.7L370.2,34.5C277.6,25.4,197.3,98.1,197.3,191.2z" class="color585a5e svgShape"/><path fill="#fff" d="M354.4,2879.2c-71.9,0-130.4-58.6-130.4-130.7V191.2c0-72,58.5-130.7,130.4-130.7c4.4,0,8.8,0.2,13.1,0.7
							l624.6,61.9c67.1,6.7,117.8,62.5,117.8,130V2670c0,65.7-49.2,121.4-114.4,129.6L371,2878.1
							C365.5,2878.8,359.9,2879.2,354.4,2879.2C354.4,2879.2,354.4,2879.2,354.4,2879.2z" class="colorffffff svgShape"/><path fill="#595bd4" d="M151.2,783.6L151.2,783.6c-13.1,0-23.7-10.6-23.7-23.7V567.6c0-13.1,10.6-23.7,23.7-23.7l0,0
						c13.1,0,23.7,10.6,23.7,23.7v192.3C174.9,773,164.3,783.6,151.2,783.6z" class="color585a5e svgShape"/><path fill="#323236" d="M705.2,159.6c0,28.7-17.1,51.9-38.2,51.9c-21.1,0-38.2-23.2-38.2-51.9c0-28.7,17.1-51.9,38.2-51.9
						C688.1,107.7,705.2,130.9,705.2,159.6z" class="color363233 svgShape"/><path fill="#595bd4" d="M688.5,159.6c0,16.2-9.6,29.3-21.5,29.3c-11.9,0-21.5-13.1-21.5-29.3s9.6-29.3,21.5-29.3
						C678.9,130.3,688.5,143.4,688.5,159.6z" class="color585a5e svgShape"/><rect width="95.2" height="37.5" x="579.8" y="703.9" fill="#53d86a" class="colorb6b7b7 svgShape"/><rect width="161.4" height="37.5" x="702.2" y="703.9" fill="#53d86a" class="colorb6b7b7 svgShape"/><rect width="145.6" height="37.5" x="891.3" y="703.9" fill="#53d86a" class="colorb6b7b7 svgShape"/><rect width="95.2" height="37.5" x="579.8" y="804.6" fill="#53d86a" class="colorb6b7b7 svgShape"/><rect width="161.4" height="37.5" x="702.2" y="804.6" fill="#53d86a" class="colorb6b7b7 svgShape"/><rect width="145.6" height="37.5" x="891.3" y="804.6" fill="#53d86a" class="colorb6b7b7 svgShape"/><path fill="#595bd4" d="M326,885.9c-8,0-15.5-3-21.3-8.6c-6.1-5.9-9.5-13.8-9.5-22.2V690.9c0-8.5,3.4-16.4,9.5-22.2
							c6.1-5.9,14.3-8.9,22.6-8.6l165.6,6.6c16.6,0.7,29.6,14.2,29.6,30.8v150.9c0,16.6-13,30.2-29.6,30.8l-165.6,6.6
							C326.9,885.8,326.5,885.9,326,885.9z M326.1,684.9c-2.1,0-3.4,1-4.1,1.7c-0.7,0.7-1.8,2.1-1.8,4.3V855c0,2.2,1.1,3.6,1.8,4.3
							c0.7,0.7,1.9,1.7,4.3,1.6l165.6-6.6c3.2-0.1,5.7-2.7,5.7-5.9V697.5c0-3.2-2.5-5.8-5.7-5.9l-165.6-6.6
							C326.2,684.9,326.1,684.9,326.1,684.9z" class="color585a5e svgShape"/><path fill="#167ffc" d="M336.1,756.5c19.9,15.8,38.1,33.2,55.8,51.2c0,0-13.3-1.2-13.3-1.2c56.9-54.1,117.9-104.1,186.4-142.8
						c-50.5,60.4-110.7,111.3-174.3,157.4c0,0-8.2,5.8-8.2,5.8C365.7,804.3,349.8,781.2,336.1,756.5L336.1,756.5z" class="color3f98d7 svgShape"/><rect width="95.2" height="37.5" x="579.8" y="1135.6" fill="#53d86a" class="colorb6b7b7 svgShape"/><rect width="161.4" height="37.5" x="702.2" y="1135.6" fill="#53d86a" class="colorb6b7b7 svgShape"/><rect width="145.6" height="37.5" x="891.3" y="1135.6" fill="#53d86a" class="colorb6b7b7 svgShape"/><rect width="95.2" height="37.5" x="579.8" y="1236.3" fill="#53d86a" class="colorb6b7b7 svgShape"/><rect width="161.4" height="37.5" x="702.2" y="1236.3" fill="#53d86a" class="colorb6b7b7 svgShape"/><rect width="145.6" height="37.5" x="891.3" y="1236.3" fill="#53d86a" class="colorb6b7b7 svgShape"/><g class="color000000 svgShape"><path fill="#595bd4" d="M326,1317.6c-8,0-15.5-3-21.3-8.6c-6.1-5.9-9.5-13.8-9.5-22.2v-164.1c0-8.5,3.4-16.4,9.5-22.2
							c6.1-5.9,14.3-8.9,22.6-8.6l165.6,6.6c16.6,0.7,29.6,14.2,29.6,30.8v150.9c0,16.6-13,30.2-29.6,30.8l-165.6,6.6
							C326.9,1317.6,326.5,1317.6,326,1317.6z M326.1,1116.6c-2.1,0-3.4,1-4.1,1.7c-0.7,0.7-1.8,2.1-1.8,4.3v164.1
							c0,2.2,1.1,3.6,1.8,4.3c0.7,0.7,1.9,1.7,4.3,1.6L492,1286c3.2-0.1,5.7-2.7,5.7-5.9v-150.9c0-3.2-2.5-5.8-5.7-5.9l-165.6-6.6
							C326.2,1116.7,326.1,1116.6,326.1,1116.6z" class="color585a5e svgShape"/><path fill="#167ffc" d="M336.1,1188.2c19.9,15.8,38.1,33.2,55.8,51.2c0,0-13.3-1.2-13.3-1.2c56.9-54.1,117.9-104.1,186.4-142.8
						c-50.5,60.4-110.7,111.3-174.3,157.4c0,0-8.2,5.8-8.2,5.8C365.7,1236.1,349.8,1212.9,336.1,1188.2L336.1,1188.2z" class="color3f98d7 svgShape"/></g><g class="color000000 svgShape"><rect width="95.2" height="37.5" x="579.8" y="1567.3" fill="#53d86a" class="colorb6b7b7 svgShape"/><rect width="161.4" height="37.5" x="702.2" y="1567.3" fill="#53d86a" class="colorb6b7b7 svgShape"/><rect width="145.6" height="37.5" x="891.3" y="1567.3" fill="#53d86a" class="colorb6b7b7 svgShape"/><rect width="95.2" height="37.5" x="579.8" y="1668" fill="#53d86a" class="colorb6b7b7 svgShape"/><rect width="161.4" height="37.5" x="702.2" y="1668" fill="#53d86a" class="colorb6b7b7 svgShape"/><rect width="145.6" height="37.5" x="891.3" y="1668" fill="#53d86a" class="colorb6b7b7 svgShape"/><g class="color000000 svgShape"><path fill="#595bd4" d="M326,1749.3c-8,0-15.5-3-21.3-8.6c-6.1-5.9-9.5-13.8-9.5-22.2v-164.1c0-8.5,3.4-16.4,9.5-22.2
							c6.1-5.9,14.3-8.9,22.6-8.6l165.6,6.6c16.6,0.7,29.6,14.2,29.6,30.8v150.9c0,16.6-13,30.2-29.6,30.8l-165.6,6.6
							C326.9,1749.3,326.5,1749.3,326,1749.3z M326.1,1548.4c-2.1,0-3.4,1-4.1,1.7c-0.7,0.7-1.8,2.1-1.8,4.3v164.1
							c0,2.2,1.1,3.6,1.8,4.3c0.7,0.7,1.9,1.7,4.3,1.6l165.6-6.6c3.2-0.1,5.7-2.7,5.7-5.9v-150.9c0-3.2-2.5-5.8-5.7-5.9l-165.6-6.6
							C326.2,1548.4,326.1,1548.4,326.1,1548.4z" class="color585a5e svgShape"/><path fill="#167ffc" d="M336.1,1619.9c19.9,15.8,38.1,33.2,55.8,51.2c0,0-13.3-1.2-13.3-1.2c56.9-54.1,117.9-104.1,186.4-142.8
						c-50.5,60.4-110.7,111.3-174.3,157.4c0,0-8.2,5.8-8.2,5.8C365.7,1667.8,349.8,1644.6,336.1,1619.9L336.1,1619.9z" class="color3f98d7 svgShape"/></g></g><g class="color000000 svgShape"><rect width="95.2" height="37.5" x="579.8" y="1999" fill="#53d86a" class="colorb6b7b7 svgShape"/><rect width="161.4" height="37.5" x="702.2" y="1999" fill="#53d86a" class="colorb6b7b7 svgShape"/><rect width="145.6" height="37.5" x="891.3" y="1999" fill="#53d86a" class="colorb6b7b7 svgShape"/><rect width="95.2" height="37.5" x="579.8" y="2099.7" fill="#53d86a" class="colorb6b7b7 svgShape"/><rect width="161.4" height="37.5" x="702.2" y="2099.7" fill="#53d86a" class="colorb6b7b7 svgShape"/><rect width="145.6" height="37.5" x="891.3" y="2099.7" fill="#53d86a" class="colorb6b7b7 svgShape"/><g class="color000000 svgShape"><path fill="#595bd4" d="M326,2181c-8,0-15.5-3-21.3-8.6c-6.1-5.9-9.5-13.8-9.5-22.2V1986c0-8.5,3.4-16.4,9.5-22.2
							c6.1-5.9,14.3-8.9,22.6-8.6l165.6,6.6c16.6,0.7,29.6,14.2,29.6,30.8v150.9c0,16.6-13,30.2-29.6,30.8l-165.6,6.6
							C326.9,2181,326.5,2181,326,2181z M326.1,1980.1c-2.1,0-3.4,1-4.1,1.7c-0.7,0.7-1.8,2.1-1.8,4.3v164.1c0,2.2,1.1,3.6,1.8,4.3
							c0.7,0.7,1.9,1.7,4.3,1.6l165.6-6.6c3.2-0.1,5.7-2.7,5.7-5.9v-150.9c0-3.2-2.5-5.8-5.7-5.9l-165.6-6.6
							C326.2,1980.1,326.1,1980.1,326.1,1980.1z" class="color585a5e svgShape"/><path fill="#167ffc" d="M336.1,2051.6c19.9,15.8,38.1,33.2,55.8,51.2c0,0-13.3-1.2-13.3-1.2c56.9-54.1,117.9-104.1,186.4-142.8
						c-50.5,60.4-110.7,111.3-174.3,157.4c0,0-8.2,5.8-8.2,5.8C365.7,2099.5,349.8,2076.3,336.1,2051.6L336.1,2051.6z" class="color3f98d7 svgShape"/></g></g><g class="color000000 svgShape"><rect width="95.2" height="37.5" x="579.8" y="2430.7" fill="#53d86a" class="colorb6b7b7 svgShape"/><rect width="161.4" height="37.5" x="702.2" y="2430.7" fill="#53d86a" class="colorb6b7b7 svgShape"/><rect width="145.6" height="37.5" x="891.3" y="2430.7" fill="#53d86a" class="colorb6b7b7 svgShape"/><rect width="95.2" height="37.5" x="579.8" y="2531.4" fill="#53d86a" class="colorb6b7b7 svgShape"/><rect width="161.4" height="37.5" x="702.2" y="2531.4" fill="#53d86a" class="colorb6b7b7 svgShape"/><rect width="145.6" height="37.5" x="891.3" y="2531.4" fill="#53d86a" class="colorb6b7b7 svgShape"/><g class="color000000 svgShape"><path fill="#595bd4" d="M326,2612.7c-8,0-15.5-3-21.3-8.6c-6.1-5.9-9.5-13.8-9.5-22.2v-164.1c0-8.5,3.4-16.4,9.5-22.2
							c6.1-5.9,14.3-8.9,22.6-8.6l165.6,6.6c16.6,0.7,29.6,14.2,29.6,30.8v150.9c0,16.6-13,30.2-29.6,30.8l-165.6,6.6
							C326.9,2612.7,326.5,2612.7,326,2612.7z M326.1,2411.8c-2.1,0-3.4,1-4.1,1.7c-0.7,0.7-1.8,2.1-1.8,4.3v164.1
							c0,2.2,1.1,3.6,1.8,4.3c0.7,0.7,1.9,1.7,4.3,1.6l165.6-6.6c3.2-0.1,5.7-2.7,5.7-5.9v-150.9c0-3.2-2.5-5.8-5.7-5.9l-165.6-6.6
							C326.2,2411.8,326.1,2411.8,326.1,2411.8z" class="color585a5e svgShape"/><path fill="#167ffc" d="M336.1,2483.3c19.9,15.8,38.1,33.2,55.8,51.2c0,0-13.3-1.2-13.3-1.2c56.9-54.1,117.9-104.1,186.4-142.8
						c-50.5,60.4-110.7,111.3-174.3,157.4c0,0-8.2,5.8-8.2,5.8C365.7,2531.2,349.8,2508.1,336.1,2483.3L336.1,2483.3z" class="color3f98d7 svgShape"/></g></g><g class="color000000 svgShape"><path fill="#167ffc" d="M312.5,455.8l17.9-19.6c9,8.5,20.8,14.6,31.6,15.1c12.3,0.5,18.6-4.1,19-11.8c0.4-8.2-7-11.2-18.2-16.4
					l-16.7-8c-13.3-6.1-25.7-17.8-24.9-36.8c1-21.7,21.1-38.2,48.3-37c15.1,0.7,30.6,7.3,41.4,19l-15.8,18c-8.3-7-16.4-11-26.7-11.4
					c-10.2-0.4-16.9,3.5-17.2,11c-0.4,8,8.1,11.3,19.3,16.4l16.4,7.5c15.7,7.2,25.2,18.2,24.4,36.8c-1,21.7-19.9,39.8-51.1,38.4
					C343.2,476.1,325.3,468.8,312.5,455.8z" class="color3f98d7 svgShape"/><path fill="#167ffc" d="M433.9,416.8l3.1-70.2l29.6,1.3l-3.2,73.3c-1.1,25.6,6.5,34.8,21.2,35.5c14.7,0.6,23.6-7.8,24.7-33.5
					l3.2-73.3l28.5,1.3l-3.1,70.2c-1.9,44-20.6,62.3-54.5,60.8C449.6,480.7,432,460.8,433.9,416.8z" class="color3f98d7 svgShape"/><path fill="#167ffc" d="M571.4,352.5l47.2,2.1c27.8,1.2,50.1,11.9,48.7,43c-1.3,30.1-24.7,42-52.4,40.8l-17.6-0.8l-2.1,47.1
					l-29.6-1.3L571.4,352.5z M613.5,414.8c15.6,0.7,24.2-5.6,24.8-18.5c0.6-12.9-7.6-17.6-23.2-18.3l-15.1-0.7l-1.6,36.8
					L613.5,414.8z M609.8,430.3l21.3-18l38.5,75.7l-33.1-1.5L609.8,430.3z" class="color3f98d7 svgShape"/><path fill="#167ffc" d="M675.1,357.1l31.3,1.4l13.1,61.7c3.3,14.5,5.3,27.8,8.6,42.4l0.8,0c4.6-14.3,8-27.4,12.3-41.5l18.1-60.3
					l30.3,1.3l-45.3,129.2l-35.6-1.6L675.1,357.1z" class="color3f98d7 svgShape"/><path fill="#167ffc" d="M802.1,362.7l82,3.6l-1.1,24.8l-52.4-2.3l-1.2,26.3l44.6,2l-1.1,24.8l-44.6-2l-1.3,30.2l54.4,2.4l-1.1,24.8
					l-84-3.7L802.1,362.7z" class="color3f98d7 svgShape"/><path fill="#167ffc" d="M931,452.7l-35.7-86l31.7,1.4l10.4,30.6c3.1,10,6.1,19.2,9.4,29.5l0.8,0c4.2-10,8.3-18.9,12.3-28.5l13-29.6
					l30.9,1.4L960.6,454l-2.1,46.7l-29.6-1.3L931,452.7z" class="color3f98d7 svgShape"/></g><g class="color000000 svgShape"><rect width="93.2" height="93.6" x="1929.8" y="2675.8" fill="#fdd9b3" class="colorfdbab3 svgShape" transform="rotate(-90 1976.445 2722.59)"/><path fill="#2a2a2c" d="M1722.8,2831.9c0,0-12.3,63.9,122.7,51.3c13.2-1.2,26.3-3.7,39.1-7.2c18.3-5,48.5-11.3,69.8-13.1l0.9,21.4
						l80.6-4.4c8.6-0.8,15-8,14.6-16.4l-4-47.9c0,0-135.4,3.9-137.7,4.9c-2.3,1-117.2,25.2-117.2,25.2L1722.8,2831.9z" class="color2a2a2c svgShape"/><path fill="#414143" d="M1788.8,2874.1l4.4,0.2c13.8,0.6,30.2,0.2,49.8-1.7c13.2-1.2,26.3-3.7,39.1-7.2
						c18.3-5,48.6-12.6,69.9-14.4c0,0,16.1-0.3,35-1.3c1.4-0.1,2.7-0.2,4.1-0.2c3.2-0.2,6.5-0.3,9.8-0.6c1.4-0.1,2.8-0.2,4.2-0.2
						c2.5-0.2,5-0.3,7.5-0.6c1.4-0.2,2.8-0.2,4.2-0.4c17.3-1.5,31.3-3.7,31.1-6.9c1.2-12.6,1.6-25.1,1-37.6
						c-0.7-15-2.7-29.8-6.2-44.7c-2.3-9.9-11.8-16.6-22.2-15.4l-73.4,8.3c-5.7,0.6-11.1-1.3-15.2-5c-0.4-0.5-0.8-0.9-1.2-1.4
						l-0.2-0.2l-1.1-1.3l-0.1-0.2l-0.2-0.2l-2.6-3l-0.1-0.1l-2.6-3l-0.2-0.2c-3.4-3.9-9.5-3.9-12.9-0.1
						c-14.3,15.9-29.5,30.4-45.8,43.3c-20.9,16.6-45.8,27.8-72.2,32.4c-1.5,0.2-3,0.5-4.6,0.7c-5.7,0.8-11.6,1.4-17.4,1.5
						c-48.5,1.5-47.8,17.1-47.8,17.1S1712.4,2869.5,1788.8,2874.1z" class="color414143 svgShape"/><path fill="#c6cdc7" d="M1934,2752.6c0.2,2.3-1.6,4.4-4,4.6c-2.4,0.2-4.5-1.6-4.7-3.9c-0.2-2.3,1.6-4.4,4-4.6
							C1931.7,2748.5,1933.8,2750.3,1934,2752.6z" class="colorc6c7cd svgShape"/><path fill="#2a2a2c" d="M1929.8,2755c-0.6,0-1.2-0.1-1.6-0.6l-17.7-16.9c-0.8-0.8-0.9-2.1-0.1-2.9c0.8-0.8,2.2-0.8,3,0
								l17.7,16.9c0.8,0.8,0.9,2.1,0.1,2.9C1930.8,2754.8,1930.3,2755,1929.8,2755z" class="color2a2a2c svgShape"/><path fill="#c6cdc7" d="M1923.5,2760.7c0.2,2.3-1.6,4.4-4,4.6c-2.4,0.2-4.5-1.6-4.7-3.9c-0.2-2.3,1.6-4.4,4-4.6
							C1921.2,2756.7,1923.3,2758.4,1923.5,2760.7z" class="colorc6c7cd svgShape"/><path fill="#2a2a2c" d="M1919.3,2763.1c-0.6,0-1.2-0.1-1.6-0.6l-16.4-15.9c-0.8-0.8-0.9-2.1-0.1-2.9c0.8-0.8,2.2-0.8,3,0
								l16.4,15.9c0.8,0.8,0.9,2.1,0.1,2.9C1920.3,2762.9,1919.8,2763.1,1919.3,2763.1z" class="color2a2a2c svgShape"/><path fill="#c6cdc7" d="M1912.9,2769.4c0.2,2.3-1.6,4.4-4,4.6c-2.4,0.2-4.5-1.6-4.7-3.9c-0.2-2.3,1.6-4.4,4-4.6
							C1910.7,2765.3,1912.8,2767.1,1912.9,2769.4z" class="colorc6c7cd svgShape"/><path fill="#2a2a2c" d="M1908.8,2771.8c-0.6,0-1.2-0.1-1.6-0.6l-15.7-15.4c-0.8-0.8-0.9-2.1-0.1-2.9c0.8-0.8,2.2-0.8,3,0
								l15.7,15.4c0.8,0.8,0.9,2.1,0.1,2.9C1909.7,2771.6,1909.3,2771.8,1908.8,2771.8z" class="color2a2a2c svgShape"/><path fill="#c6cdc7" d="M1903.1,2778.2c0.1,2.3-1.8,4.3-4.2,4.4c-2.4,0.1-4.4-1.8-4.5-4.1c-0.1-2.3,1.8-4.3,4.2-4.4
							C1901,2774.1,1903.1,2775.9,1903.1,2778.2z" class="colorc6c7cd svgShape"/><path fill="#2a2a2c" d="M1898.8,2780.5c-0.6,0-1.2-0.2-1.6-0.6l-14.7-15.4c-0.8-0.8-0.8-2.1,0.1-2.9c0.9-0.8,2.2-0.8,3,0.1
								l14.7,15.4c0.8,0.8,0.8,2.1-0.1,2.9C1899.8,2780.3,1899.3,2780.4,1898.8,2780.5z" class="color2a2a2c svgShape"/><path fill="#c6cdc7" d="M1892.2,2785.9c0.1,2.3-1.8,4.3-4.2,4.4c-2.4,0.1-4.4-1.8-4.5-4.1c-0.1-2.3,1.8-4.3,4.2-4.4
							S1892.2,2783.6,1892.2,2785.9z" class="colorc6c7cd svgShape"/><path fill="#2a2a2c" d="M1887.9,2788.1c-0.6,0-1.2-0.2-1.6-0.6l-14.2-14.8c-0.8-0.8-0.8-2.1,0.1-2.9c0.9-0.8,2.2-0.8,3,0.1
								l14.2,14.8c0.8,0.8,0.8,2.1-0.1,2.9C1888.9,2787.9,1888.5,2788.1,1887.9,2788.1z" class="color2a2a2c svgShape"/><path fill="#c6cdc7" d="M1881.3,2794.1c0.1,2.3-1.8,4.3-4.2,4.4c-2.4,0.1-4.4-1.8-4.5-4.1c-0.1-2.3,1.8-4.3,4.2-4.4
							C1879.2,2790,1881.3,2791.8,1881.3,2794.1z" class="colorc6c7cd svgShape"/><path fill="#2a2a2c" d="M1877,2796.3c-0.6,0-1.2-0.2-1.6-0.6l-13.7-13.8c-0.8-0.8-0.8-2.1,0.1-2.9c0.9-0.8,2.2-0.8,3,0.1
								l13.7,13.8c0.8,0.8,0.8,2.1-0.1,2.9C1878,2796.1,1877.5,2796.3,1877,2796.3z" class="color2a2a2c svgShape"/><path fill="#2a2a2c" d="M1858.7,2804.5c-0.1,7.2,3.1,14.2,8.8,18.9c5.9,4.9,13.7,6.9,21.3,5.4l71.2-13.8
						c5.8-1.1,11.8,0.2,16.5,3.6c4.8,3.3,7.9,8.6,8.5,14.2l1.9,17.1c1.4-0.1,2.7-0.2,4.1-0.2l-1.9-17.3c-0.8-6.8-4.5-13-10.2-17.1
						c-5.7-4-12.9-5.6-19.8-4.2l-71.2,13.8c-6.4,1.3-12.9-0.4-17.9-4.5c-4.8-3.9-7.4-9.7-7.3-15.8c0.1-6.1,2.9-11.8,7.9-15.6
						l58.2-45.7l-2.6-3l-58.2,45.6C1862.2,2790.4,1858.8,2797.3,1858.7,2804.5z" class="color2a2a2c svgShape"/><rect width="93.2" height="93.6" x="2278.2" y="2675.8" fill="#fdd9b3" class="colorfdbab3 svgShape" transform="rotate(-90 2324.857 2722.59)"/><path fill="#2a2a2c" d="M2071.2,2831.9c0,0-12.3,63.9,122.7,51.3c13.2-1.2,26.3-3.7,39.1-7.2c18.3-5,48.5-11.3,69.8-13.1l0.9,21.4
						l80.6-4.4c8.6-0.8,15-8,14.6-16.4l-4-47.9c0,0-135.4,3.9-137.7,4.9c-2.3,1-117.2,25.2-117.2,25.2L2071.2,2831.9z" class="color2a2a2c svgShape"/><path fill="#414143" d="M2137.2,2874.1l4.4,0.2c13.8,0.6,30.2,0.2,49.8-1.7c13.2-1.2,26.3-3.7,39.1-7.2
						c18.3-5,48.6-12.6,69.9-14.4c0,0,16.1-0.3,35-1.3c1.4-0.1,2.7-0.2,4.1-0.2c3.2-0.2,6.5-0.3,9.8-0.6c1.4-0.1,2.8-0.2,4.2-0.2
						c2.5-0.2,5-0.3,7.5-0.6c1.4-0.2,2.8-0.2,4.2-0.4c17.3-1.5,31.3-3.7,31.1-6.9c1.2-12.6,1.6-25.1,1-37.6
						c-0.7-15-2.7-29.8-6.2-44.7c-2.3-9.9-11.8-16.6-22.2-15.4l-73.4,8.3c-5.7,0.6-11.1-1.3-15.2-5c-0.4-0.5-0.8-0.9-1.2-1.4
						l-0.2-0.2l-1.1-1.3l-0.1-0.2l-0.2-0.2l-2.6-3l-0.1-0.1l-2.6-3l-0.2-0.2c-3.4-3.9-9.5-3.9-12.9-0.1
						c-14.2,15.9-29.5,30.4-45.8,43.3c-20.9,16.6-45.8,27.8-72.2,32.4c-1.5,0.2-3,0.5-4.6,0.7c-5.7,0.8-11.5,1.4-17.4,1.5
						c-48.5,1.5-47.8,17.1-47.8,17.1S2060.8,2869.5,2137.2,2874.1z" class="color414143 svgShape"/><path fill="#c6cdc7" d="M2282.4,2752.6c0.2,2.3-1.6,4.4-4,4.6c-2.4,0.2-4.5-1.6-4.7-3.9c-0.2-2.3,1.6-4.4,4-4.6
							C2280.1,2748.5,2282.2,2750.3,2282.4,2752.6z" class="colorc6c7cd svgShape"/><path fill="#2a2a2c" d="M2278.2,2755c-0.6,0-1.2-0.1-1.6-0.6l-17.7-16.9c-0.8-0.8-0.9-2.1-0.1-2.9c0.8-0.8,2.2-0.8,3,0
								l17.7,16.9c0.8,0.8,0.9,2.1,0.1,2.9C2279.2,2754.8,2278.7,2755,2278.2,2755z" class="color2a2a2c svgShape"/><path fill="#c6cdc7" d="M2271.9,2760.7c0.2,2.3-1.6,4.4-4,4.6c-2.4,0.2-4.5-1.6-4.7-3.9c-0.2-2.3,1.6-4.4,4-4.6
							C2269.6,2756.7,2271.7,2758.4,2271.9,2760.7z" class="colorc6c7cd svgShape"/><path fill="#2a2a2c" d="M2267.7,2763.1c-0.6,0-1.2-0.1-1.6-0.6l-16.4-15.9c-0.8-0.8-0.9-2.1-0.1-2.9c0.8-0.8,2.2-0.8,3,0
								l16.4,15.9c0.8,0.8,0.9,2.1,0.1,2.9C2268.7,2762.9,2268.2,2763.1,2267.7,2763.1z" class="color2a2a2c svgShape"/><path fill="#c6cdc7" d="M2261.4,2769.4c0.2,2.3-1.6,4.4-4,4.6c-2.4,0.2-4.5-1.6-4.7-3.9c-0.2-2.3,1.6-4.4,4-4.6
							C2259.1,2765.3,2261.2,2767.1,2261.4,2769.4z" class="colorc6c7cd svgShape"/><path fill="#2a2a2c" d="M2257.2,2771.8c-0.6,0-1.2-0.1-1.6-0.6l-15.7-15.4c-0.8-0.8-0.9-2.1-0.1-2.9c0.8-0.8,2.2-0.8,3,0
								l15.7,15.4c0.8,0.8,0.9,2.1,0.1,2.9C2258.2,2771.6,2257.7,2771.8,2257.2,2771.8z" class="color2a2a2c svgShape"/><path fill="#c6cdc7" d="M2251.6,2778.2c0.1,2.3-1.8,4.3-4.2,4.4c-2.4,0.1-4.4-1.8-4.5-4.1c-0.1-2.3,1.8-4.3,4.2-4.4
							C2249.4,2774.1,2251.5,2775.9,2251.6,2778.2z" class="colorc6c7cd svgShape"/><path fill="#2a2a2c" d="M2247.3,2780.5c-0.6,0-1.2-0.2-1.6-0.6l-14.7-15.4c-0.8-0.8-0.8-2.1,0.1-2.9c0.9-0.8,2.2-0.8,3,0.1
								l14.7,15.4c0.8,0.8,0.8,2.1-0.1,2.9C2248.3,2780.3,2247.8,2780.4,2247.3,2780.5z" class="color2a2a2c svgShape"/><path fill="#c6cdc7" d="M2240.7,2785.9c0.1,2.3-1.8,4.3-4.2,4.4c-2.4,0.1-4.4-1.8-4.5-4.1c-0.1-2.3,1.8-4.3,4.2-4.4
							C2238.5,2781.7,2240.6,2783.6,2240.7,2785.9z" class="colorc6c7cd svgShape"/><path fill="#2a2a2c" d="M2236.4,2788.1c-0.6,0-1.2-0.2-1.6-0.6l-14.2-14.8c-0.8-0.8-0.8-2.1,0.1-2.9c0.9-0.8,2.2-0.8,3,0.1
								l14.2,14.8c0.8,0.8,0.8,2.1-0.1,2.9C2237.4,2787.9,2236.9,2788.1,2236.4,2788.1z" class="color2a2a2c svgShape"/><path fill="#c6cdc7" d="M2229.8,2794.1c0.1,2.3-1.8,4.3-4.2,4.4c-2.4,0.1-4.4-1.8-4.5-4.1s1.8-4.3,4.2-4.4
							C2227.6,2790,2229.7,2791.8,2229.8,2794.1z" class="colorc6c7cd svgShape"/><path fill="#2a2a2c" d="M2225.5,2796.3c-0.6,0-1.2-0.2-1.6-0.6l-13.7-13.8c-0.8-0.8-0.8-2.1,0.1-2.9c0.9-0.8,2.2-0.8,3,0.1
								l13.7,13.8c0.8,0.8,0.8,2.1-0.1,2.9C2226.5,2796.1,2226,2796.3,2225.5,2796.3z" class="color2a2a2c svgShape"/><path fill="#2a2a2c" d="M2207.1,2804.5c-0.1,7.2,3.1,14.2,8.8,18.9c5.9,4.9,13.7,6.9,21.3,5.4l71.2-13.8
						c5.8-1.1,11.8,0.2,16.5,3.6c4.8,3.3,7.9,8.6,8.5,14.2l1.9,17.1c1.4-0.1,2.7-0.2,4.1-0.2l-1.9-17.3c-0.8-6.8-4.5-13-10.2-17.1
						c-5.7-4-12.9-5.6-19.8-4.2l-71.2,13.8c-6.4,1.3-12.9-0.4-17.9-4.5c-4.8-3.9-7.4-9.7-7.3-15.8c0.1-6.1,2.9-11.8,7.9-15.6
						l58.2-45.7l-2.6-3l-58.2,45.6C2210.6,2790.4,2207.2,2797.3,2207.1,2804.5z" class="color2a2a2c svgShape"/><path fill="#414143" d="M2380.1,1496.3c31.1,180.8-0.9,358.3-17,605.9l31.3,607.6h-140.5l-77-576.1l-29.6-237.1l-57.7,205.7
					l-46.9,607.6h-139.1l-3.3-631c23.5-206,55-402.6,99.5-584.2L2380.1,1496.3z" class="color414143 svgShape"/><path fill="#fdd9b3" d="M1545.4,1261.6l-80.3,12.7c-8.7,1.4-17.3,3.5-25.7,6.2c-25.6,8.2-92.6,21.4-124.3-50.1
				c-4.8-10.9,4.8-22.9,16.8-20.4c21.4,4.5,58.4,9.7,70.9-1.5l-25.2-23.9c-4.7-4.5-4.6-11.9,0.3-16.2l0,0c3.8-3.4,9.4-3.8,13.8-1.2
				l35.5,21.7c8.7,5.3,18.9,7.8,29.1,7.1l75.1-5" class="colorfdbab3 svgShape"/><path fill="#595bd4" d="M2134.7,1172l-249,80.9c-11.5,3.8-23.4,6.3-35.5,7.5l-386.7,24.2l-14.4-97.2l374.3-53.8
				c16.9-3.2,33-9.4,47.6-18.2l223.6-150.9L2118,984l54.9,121.7L2134.7,1172z" class="color585a5e svgShape"/><rect width="104.5" height="181.2" x="2150.4" y="836.2" fill="#fdd9b3" class="colorfdbab3 svgShape" transform="rotate(-180 2202.62 926.82)"/><path fill="#fdd9b3" d="M2074.7,808.4c-11.9,76.3,43.7,123.5,98.2,123.5c54.5,0,99-54.1,99-123.5c0-69.3-44.2-125.6-98.6-125.6
				C2118.9,682.8,2085.4,739.8,2074.7,808.4z" class="colorfdbab3 svgShape"/><path fill="#414143" d="M2125.7,676.2c44-34.4,81.6-3.3,81.6-3.3c64.7-17.4,75,51.8,75,51.8c74-1.9-27.5,172.9-27.5,172.9l-6.9-23.3
				c-3.5-12-2.9-24.9,2.2-36.3c9.9-22,12.3-49-11.2-52.6c-20.4-3.2-31.4,26.7-35.5,41.1c-1.2,4.1-5.5,6.6-9.8,5.6l0,0
				c-4.1-1-6.7-4.8-6-8.8l9.1-58c-29.1,8.5-86.7-1.9-99.2-6.3c0,0-53.3-16-44.3-70.7c0,0,7,13.8,35.9,14.8c0,0-23.9-5.3-20.9-38.5
				C2068.3,664.5,2100,696.4,2125.7,676.2z" class="color414143 svgShape"/><path fill="#e5e5e5" d="M2062.8,1283.4c0,3.3,0,365.7,0,365.7c115.2,53.5,220.6,13.7,220.3,14.6l-5.6-616.1l-22.8-105.3l-81.7,53
				l-51.3-41.7l-33,28.2l-6.8,143.8C2081.9,1125.5,2062.8,1280.1,2062.8,1283.4z" class="colore5e5e5 svgShape"/><path fill="#595bd4" d="M2418.7,1689.1c3.3,13.7,0.2,27.7-13.8,31.2c0,0-267.5,30.9-236.4-285.5l14.9-320.8
				c0-59.2,19.2-120.8,63.9-161.1l7.4-10.7l55.4,22.6c60.9,28.7,98.2,90.1,94.4,155.8l-0.7,122.9
				C2398.9,1344.8,2411.5,1659,2418.7,1689.1z" class="color585a5e svgShape"/><path fill="#595bd4" d="M2150.4,946.1l-28.7,7.5c-44.5,12.6-79.9,46.9-79.9,91v75.4c0,45.7-3.1,91.4-9.2,136.8l-77.2,357.2
				c-2.1,15.9,5.5,22.2,24.4,33.2l113.4,46.1c12,2.8,21.8-9.5,16-20.1l0,0c-21.4-38.9-30.5-122.5-26.1-166.4l25.6-255.3
				c2.3-22.6,3.7-45.4,4.2-68.1L2150.4,946.1z" class="color585a5e svgShape"/><polygon fill="#c6cdc7" points="2150.4 946.1 2139.7 1013.7 2201.8 1019.1 2254.8 942.3 2173 995.3" class="colorc6c7cd svgShape"/><path fill="#414143" d="M2073.9,842.7L2073.9,842.7L2183,837l6.8-27.1l17.6,4.9l-15,77.1c-4.8,24.6-28.8,41.1-54.3,37.3l0,0
				C2095.9,923,2069.3,883.8,2073.9,842.7z" class="color414143 svgShape"/><path fill="#fe9526" d="M2173,995.3l-13.2,15.8l4.8,19.1l-4.8,38.8c-13.5,108.1-77.4,204.2-173.4,260.4l-17.5,10.2
				c-52.9,31-96.5,74.9-126.5,127.3l-37.3,65l27.7,49.4l56.4-22.4l45.1-79c20.3-35.6,47.7-67,80.4-92.4l34.1-26.4
				c86.4-66.9,136.8-168.4,137.1-275.7l0.1-53.5l2-21.9L2173,995.3z" class="colore25651 svgShape"/><g class="color000000 svgShape"><path fill="#414143" d="M2695.6,1804.9l-23.1,5.4l-13.8-56c-0.1-0.3-0.3-0.4-0.6-0.3l-118.5,27.5c-0.3,0.1-0.4,0.3-0.4,0.6
							l13.8,56l-23.1,5.4l-13.8-56c-3.1-12.6,4.9-25.4,17.9-28.4l118.5-27.5c13-3,26.1,4.8,29.2,17.4L2695.6,1804.9z" class="color414143 svgShape"/><path fill="#e2e2e2" d="M2564,1850l-38.2,8.9l-5.9-23.9c-0.5-2,0.8-4,2.8-4.5l30.8-7.2c2.1-0.5,4.1,0.8,4.6,2.7L2564,1850z" class="colore2e2e2 svgShape"/><path fill="#c6cdc7" d="M2558.1,1826.1l5.9,23.9l-5.8,1.3l-5.9-23.9c-0.5-2-2.5-3.2-4.6-2.7l5.8-1.3
								C2555.6,1822.9,2557.7,1824.1,2558.1,1826.1z" class="colorc6c7cd svgShape"/><path fill="#e2e2e2" d="M2706.6,1816.8l-38.2,8.9l-5.9-23.9c-0.5-2,0.8-4,2.8-4.5l30.8-7.2c2.1-0.5,4.1,0.8,4.6,2.7
								L2706.6,1816.8z" class="colore2e2e2 svgShape"/><path fill="#c6cdc7" d="M2700.7,1793l5.9,23.9l-5.8,1.3l-5.9-23.9c-0.5-2-2.5-3.2-4.6-2.7l5.8-1.3
								C2698.1,1789.7,2700.2,1791,2700.7,1793z" class="colorc6c7cd svgShape"/><g class="color000000 svgShape"><path fill="#595bd4" d="M2876.9,1891l38.8,157.6c2,8-3.1,16.1-11.4,18l-438.6,101.9c-8.3,1.9-16.6-3-18.5-11.1l-38.8-157.6
						L2876.9,1891z" class="color585a5e svgShape"/><path fill="#595bd4" d="M2857.1,1774.7l31.3,127.3c1.4,5.5-2.1,11-7.8,12.3l-464.8,108c-5.6,1.3-11.3-2.1-12.7-7.6l-31.3-127.3
							c-1-4,1.6-8,5.7-9l470.3-109.3C2852,1768.2,2856.2,1770.7,2857.1,1774.7z" class="color585a5e svgShape"/><polygon fill="#414143" points="2882.6 1913.8 2885.4 1925.3 2416.9 2034.1 2414 2022.7" class="color414143 svgShape"/></g></g><g class="color000000 svgShape"><path fill="#e0e0e0" d="M2532.5,2033.2l-30.8,7.2c-2.6,0.6-5.2-1-5.9-3.5l-11.4-46.4c-0.6-2.5,1-5.1,3.6-5.7l30.8-7.2
						c2.6-0.6,5.2,1,5.8,3.5l11.4,46.4C2536.7,2030,2535.1,2032.5,2532.5,2033.2z" class="colore0e0e0 svgShape"/><path fill="#414143" d="M2521.4,2017.9c1.1,4.5-1.8,9.1-6.4,10.2c-4.7,1.1-9.3-1.7-10.5-6.2c-1.1-4.5,1.8-9.1,6.4-10.2
						C2515.6,2010.6,2520.3,2013.4,2521.4,2017.9z" class="color414143 svgShape"/><path fill="#e0e0e0" d="M2812.6,1968.1l-30.8,7.2c-2.6,0.6-5.2-1-5.9-3.5l-11.4-46.4c-0.6-2.5,1-5.1,3.6-5.7l30.8-7.2
						c2.6-0.6,5.2,1,5.9,3.5l11.4,46.4C2816.8,1964.9,2815.2,1967.5,2812.6,1968.1z" class="colore0e0e0 svgShape"/><path fill="#414143" d="M2801.5,1952.8c1.1,4.5-1.8,9.1-6.4,10.2c-4.7,1.1-9.3-1.7-10.5-6.2c-1.1-4.5,1.8-9.1,6.4-10.2
						C2795.7,1945.5,2800.4,1948.3,2801.5,1952.8z" class="color414143 svgShape"/></g><path fill="#fdd9b3" d="M2600.7,1607.4l18.7,77c2,8.4,4.8,16.5,8.2,24.5c10.2,24.2,30.1,66.2-41.1,101.9c-10.9,5.5-23.8-3-22.1-14.8
				c3.1-21,4.2-35.3-8.2-46.6l-22.8,26.1c-4.3,4.9-11.9,5.3-16.7,0.8l0,0c-3.7-3.4-4.6-8.9-2.2-13.3l19.7-36
				c4.8-8.8,6.7-18.8,5.2-28.7l-10.5-72.4" class="colorfdbab3 svgShape"/><path fill="#595bd4" d="M2628.1,1677.7c0,0-80.5-402.6-87.1-415.3c-74.8-143-182.1-261.1-182.1-261.1l-110.6,65.6l-15.8,75.3
				l184.7,184.6c8.2,6.5,107.8,386.5,107.8,386.5L2628.1,1677.7z" class="color585a5e svgShape"/></g></svg>